<svg xmlns="http://www.w3.org/2000/svg" width="32" height="32" fill-rule="evenodd" clip-rule="evenodd" image-rendering="optimizeQuality" shape-rendering="geometricPrecision" text-rendering="geometricPrecision"><path fill="#72b8f2" d="M1 0h6l1 2v4L6 8H2L0 7V1l1-1Zm2 2c1 0 2 1 1 3-3-1-3-2-1-3Z" opacity=".8"/><path fill="#5c5a5c" d="M8 0h3c-1 3 0 5 2 8h8c-3 0-4 1-5 3h-5v10h5l5 3H11v8H8v-7l-1-1H0v-3h8V11H0V8h6l2-2V0Z"/><path fill="#4a4748" d="M21 0h3v8h8v3h-8v10h8v3h-6c-2 0-2 0-2 2v6h-3v-8l-5-3h5V11h-5c1-2 2-3 5-3V0Z"/><path fill="#e3555f" d="M12 0h8c-1 2-2 5-1 8h-1c-2-2-3-2-4 0h-1l-1-8Z"/><path fill="#6db1f1" d="M13 12c6-2 8 1 6 7-7 1-9-1-6-7Zm2 3c1 0 2 0 1 2l-1-2Z" opacity=".7"/><path fill="#ee6e7d" d="M0 24h2c1 2 2 2 3 0h2l1 1v2c-3 1-3 2 0 3v2H5c-1-2-2-2-2 0H0v-8Zm2 0h3c-1 2-2 2-3 0Z" opacity=".6"/><path fill="#63a1ea" d="M26 24h4l2 1v6l-1 1h-6l-1-2v-4l2-2Zm1 3c1 0 2 1 1 3-1-1-2-2-1-3Z" opacity=".8"/></svg>